FILE "Celeste Classic (USA) (Unlicensed) (Midnight Mirage Softworks).bin" BINARY
  TRACK 01 MODE2/2352
    INDEX 01 00:00:00
  TRACK 02 AUDIO
    INDEX 00 00:18:03
    INDEX 01 00:20:03
  TRACK 03 AUDIO
    INDEX 00 01:06:62
    INDEX 01 01:08:62
  TRACK 04 AUDIO
    INDEX 00 01:47:08
    INDEX 01 01:49:08
  TRACK 05 AUDIO
    INDEX 00 02:48:47
    INDEX 01 02:50:47
  TRACK 06 AUDIO
    INDEX 00 03:20:28
    INDEX 01 03:22:28
